<svg xmlns="http://www.w3.org/2000/svg" id="Layer_1" viewBox="0 0 474.82 441.44" width="474.82" height="441.44"><metadata><rdf:RDF xmlns:rdf="http://www.w3.org/1999/02/22-rdf-syntax-ns#" xmlns:dc="http://purl.org/dc/elements/1.1/"><rdf:Description><dc:creator>RealFaviconGenerator</dc:creator><dc:source>https://realfavicongenerator.net</dc:source></rdf:Description></rdf:RDF></metadata><path d="M432.69,321.36c25.2,17.87,38.86,34.91,41.56,51.99.28,1.7-.27,3.45-1.51,4.68-1.04,1.05-2.42,1.62-3.87,1.62-.25,0-.53-.02-.81-.06-12.93-1.96-29.8-5.64-40.63-15.28-3.87,19.68-9.79,40.55-17.87,62.55-2.98,8.1-10.83,13.61-19.55,13.74l-25.02.34h-.3c-5.51,0-10.55-2.15-14.36-5.64-7.83,3-15.87,4.56-24.3,4.56-4.34,0-8.78-.41-13.38-1.19-8.08-1.41-14.15-8.22-14.74-16.56-.6-8.27-.92-15.72-.66-25.8-7.36-.28-15-.9-23.07-1.92-3.36,11.13-9.06,22.91-17.31,35.89-4.02,6.32-11.28,10.13-18.62,9.87l-21.23-.68c-10.17-.32-18.68-7.76-20.26-17.68-1.27-8.06-2.17-17.02-2.7-27.25-9.83,1.04-19.66.83-29.81-.64-2.89,12.77-6.12,22.79-10.08,31.25-3.36,7.24-10.85,11.92-19.06,11.92h-16.87c-9.43,0-17.81-6.34-20.43-15.4-8.38-29.1-11.89-61.34-10.81-98.4-44.95-10.45-66.76-32.47-66.18-66.76.34-19.13,6.64-34.66,18.7-46.17,1.55-1.47,3.21-2.83,4.91-4.17-2.25-23.87-.04-46.44,6.13-66.78C22.82,129.96,3.95,114.58.91,98.64c-1.51-7.89,1.19-15.25,7.4-20.21,12.49-9.95,36.7-9.12,65.8,1.94-12.21-31.61-9.23-55.44,9.11-72.53,3.94-3.68,9.4-4.89,14.55-3.29,5.28,1.66,9.13,5.85,10.32,11.23,3.83,17.34,8.64,29.96,15.4,40.34,32.81-14.09,71.26-14.58,110.38-1.94,7.85-11.27,15.66-25.91,23.76-44.72,2.24-5.15,7.09-8.57,12.68-8.93,5.73-.34,11.15,2.48,14.11,7.44,11.6,19.41,14.45,42.87,8.68,69.74,30.1-6.31,54.17-3.21,65.36,8.68,5.49,5.85,7.17,13.2,4.72,20.71-4.76,14.61-24.21,26.76-52.42,32.95,1.53,12.34,2.72,25.17,3.06,37.96,46.45,6.32,79.95,25.7,99.61,57.72,14.13,23,20.49,51.91,19.26,85.63ZM340.93,393.19c-10.38,2.14-21.19,3.25-32.77,3.42-.1,4.02-.1,7.64-.04,11.02,12.62.79,23.53.3,33.83-1.47-.34-3.98-.68-8.18-1.02-12.97ZM461.3,367.42c-4.36-10.53-14.23-21.64-29.44-33.19-.47,5.25-1.13,10.59-1.94,16.06,4.24,8.07,14.3,13.6,31.38,17.13ZM404.69,407.97c12.15-36.74,17.89-69.89,17.3-98.7-5.98,2.34-11.88,3.49-17.53,3.49-21.05,0-39.13-14.74-48.34-33.61-11.62-23.75-9.41-54.55,16.02-70.1-15.81-10.07-35.27-16.75-58.23-20.05-.62,43.3-12.6,84.81-55.19,105.55-2.83,4.15-6.21,8-10.3,11.47-24.68,21.04-66.48,24.63-92.2,24.63-12.17,0-20.75-.8-22.21-.95-13.24-.79-25.19-2.19-36.09-4.13-.7,27.85,1.32,52.81,6.15,75.68,15.79,3.38,31.38,3.96,46.38,1.51.15-.02.28.04.4.02,1.39-4.83,2.71-10.15,3.94-16.11.62-2.89,3.43-4.76,6.32-4.23,12.87,2.38,25.1,2.6,37.36.66,1.53-.25,3.11.19,4.3,1.17s1.91,2.45,1.98,4c.23,5.74.55,11.04.97,16.04,16.41,2.38,33.72,3.02,51.64,1.7.23-.02.42.07.64.09,3.12-6.62,5.49-12.92,6.98-18.94.65-2.72,3.29-4.44,6.04-4.08,28.68,4.08,52.04,3.46,73.61-1.94,1.57-.38,3.23-.06,4.53.89,1.32.94,2.13,2.43,2.24,4.05.53,8.36,1.06,15.38,1.63,21.5,16.26,1.77,33.21,1.9,51.66.39ZM421.26,297.75s.09,0,.13-.03c-1.83-21.61-7.55-40.53-17.23-56.29-6-9.74-13.47-18.21-22.36-25.4-.13.08-.22.21-.36.27-24.37,11.92-25.15,38.45-15.56,58.06,9.6,19.62,31.02,35.28,55.38,23.39ZM399.39,423.18c.49-1.36.92-2.68,1.41-4.04-7.15.49-14.15.81-20.92.81-8.83,0-17.34-.51-25.7-1.34.11.89.21,1.76.32,2.62.66,5.14,5.06,8.87,10.36,8.91l25.02-.34c4.24-.06,8.06-2.72,9.51-6.62ZM353.14,98.74c-.36-1.73-1.21-3.32-2.62-4.81-7-7.43-27.76-12.81-63.38-3.55-.12.04-.27,0-.4.02-.32.04-.62.15-.96.15-.19,0-.4-.07-.59-.09l-.45-.06c-.15-.04-.28-.02-.41-.07-.29-.08-.51-.27-.78-.4-.24-.11-.49-.13-.7-.28-59.78-38.46-123.4-44.36-170.14-15.76-39.98,24.44-61.25,71.1-57.83,125.69,19.34-10.32,46.72-14.87,83.06-13.81,3.28.07,81.7,2.13,115.31,38.45,10.83,11.72,15.87,25.72,14.98,41.63-.21,3.96-.79,7.77-1.7,11.41,32.34-23.32,42.48-67.53,32.78-140.61-1.27-6.96-4.21-16-5.15-18.64-.85-2.4.07-5.06,2.22-6.42,20.61-13.07,39.23-17.21,56.76-12.85ZM344.42,425.91c-.3-1.07-.58-2.13-.73-3.26-.23-1.79-.44-3.66-.66-5.57-7.42,1.23-15.1,1.87-23.4,1.87-3.53,0-7.21-.15-11-.36.07.95.13,1.89.19,2.87.24,3.28,2.64,6.06,5.73,6.59,10.72,1.86,20.51,1.05,29.87-2.14ZM349.8,109.06c-13.34-3.05-27.79,0-43.98,9.48.96,2.98,2.09,6.9,3.05,10.79,22.4-4.96,35.29-13.08,40.93-20.27ZM282.23,76.53c5.47-24.56,3.15-45.72-7.13-62.94-1.27-2.14-3.4-2.14-4.04-2.14-.72.04-2.51.36-3.38,2.38-7.83,18.15-15.43,32.66-23.15,44.17,12.62,4.83,25.23,11,37.7,18.53ZM257.36,265.17c.75-13.02-3.21-24.02-12.08-33.61-30.45-32.93-106.83-34.93-107.59-34.96-3.28-.1-6.47-.14-9.58-.14-38.59,0-65.8,7.33-81.03,21.87-10.02,9.57-15.02,22.14-15.32,38.48-.4,24,9.83,56.55,102.97,62.02.07,0,.15.02.24.02.74.07,73.2,7.15,106.37-21.12,10.02-8.56,15.26-19.2,16.02-32.56ZM247.7,424.57c1.6-2.54,2.98-4.94,4.36-7.34-4.53.23-9.04.38-13.49.38-10.83,0-21.4-.72-31.65-2.09.21,1.58.42,3.17.66,4.68.74,4.77,4.87,8.34,9.82,8.49l21.24.68c3.68.15,7.12-1.74,9.06-4.8ZM144.37,420.63c.95-2.04,1.87-4.21,2.74-6.51-5.21.64-10.47,1.06-15.78,1.06-8.09,0-16.26-.74-24.49-2.21.49,1.94.95,3.87,1.51,5.77,1.27,4.44,5.36,7.53,9.95,7.53h16.88c4,0,7.59-2.19,9.19-5.64ZM107.05,64.61c2.15-1.32,4.36-2.47,6.57-3.66-7.08-11.27-12.14-24.72-16.12-42.76-.34-1.53-1.43-2.7-2.92-3.17-.66-.21-2.38-.53-3.89.87-15.7,14.62-17.23,35.36-4.66,64.96,6.38-6.07,13.36-11.56,21.02-16.24ZM54.13,129.18c5.2-13.46,12.26-25.78,21.05-36.59-32.43-13.43-52.55-11.53-60.04-5.55-3.09,2.44-4.26,5.7-3.51,9.66,1.74,9.14,14,22.87,42.5,32.48Z"></path><path d="M431.86,334.23c15.21,11.55,25.08,22.66,29.44,33.19-17.08-3.53-27.14-9.06-31.38-17.13.81-5.47,1.47-10.81,1.94-16.06Z" style="fill:#edebe2;"></path><path d="M421.99,309.27c.59,28.81-5.15,61.96-17.3,98.7-18.45,1.51-35.4,1.38-51.66-.39-.57-6.12-1.1-13.14-1.63-21.5-.11-1.62-.92-3.11-2.24-4.05-1.3-.95-2.96-1.27-4.53-.89-21.57,5.4-44.93,6.02-73.61,1.94-2.75-.36-5.39,1.36-6.04,4.08-1.49,6.02-3.86,12.32-6.98,18.94-.22-.02-.41-.11-.64-.09-17.92,1.32-35.23.68-51.64-1.7-.42-5-.74-10.3-.97-16.04-.07-1.55-.79-3.02-1.98-4s-2.77-1.42-4.3-1.17c-12.26,1.94-24.49,1.72-37.36-.66-2.89-.53-5.7,1.34-6.32,4.23-1.23,5.96-2.55,11.28-3.94,16.11-.12.02-.25-.04-.4-.02-15,2.45-30.59,1.87-46.38-1.51-4.83-22.87-6.85-47.83-6.15-75.68,10.9,1.94,22.85,3.34,36.09,4.13,1.46.15,10.04.95,22.21.95,25.72,0,67.52-3.59,92.2-24.63,4.09-3.47,7.47-7.32,10.3-11.47,42.59-20.74,54.57-62.25,55.19-105.55,22.96,3.3,42.42,9.98,58.23,20.05-25.43,15.55-27.64,46.35-16.02,70.1,9.21,18.87,27.29,33.61,48.34,33.61,5.65,0,11.55-1.15,17.53-3.49ZM346.03,325.78c10.53-12.44,6.24-30.17-3.76-39.48-8.58-7.96-19.62-8.22-27.57-.62-10.64,8.06-21.11,16.85-22.56,27.83-.74,5.53.92,10.98,4.9,16.15.1.14.23.29.36.42,7.04,7.43,14.47,11.17,22.08,11.17.19-.02.41-.02.6-.02,8.76-.24,17.25-5.28,25.95-15.45Z" style="fill:#edebe2;"></path><path d="M421.39,297.72s-.09.03-.13.03c-24.36,11.89-45.78-3.77-55.38-23.39-9.59-19.61-8.81-46.14,15.56-58.06.14-.06.23-.19.36-.27,8.89,7.19,16.36,15.66,22.36,25.4,9.68,15.76,15.4,34.68,17.23,56.29Z"></path><path d="M400.8,419.14c-.49,1.36-.92,2.68-1.41,4.04-1.45,3.9-5.27,6.56-9.51,6.62l-25.02.34c-5.3-.04-9.7-3.77-10.36-8.91-.11-.86-.21-1.73-.32-2.62,8.36.83,16.87,1.34,25.7,1.34,6.77,0,13.77-.32,20.92-.81Z"></path><path d="M350.52,93.93c1.41,1.49,2.26,3.08,2.62,4.81-17.53-4.36-36.15-.22-56.76,12.85-2.15,1.36-3.07,4.02-2.22,6.42.94,2.64,3.88,11.68,5.15,18.64,9.7,73.08-.44,117.29-32.78,140.61.91-3.64,1.49-7.45,1.7-11.41.89-15.91-4.15-29.91-14.98-41.63-33.61-36.32-112.03-38.38-115.31-38.45-36.34-1.06-63.72,3.49-83.06,13.81-3.42-54.59,17.85-101.25,57.83-125.69,46.74-28.6,110.36-22.7,170.14,15.76.21.15.46.17.7.28.27.13.49.32.78.4.13.05.26.03.41.07l.45.06c.19.02.4.09.59.09.34,0,.64-.11.96-.15.13-.02.28.02.4-.02,35.62-9.26,56.38-3.88,63.38,3.55ZM264.56,147.58c0-6.21-5.07-11.27-11.28-11.27s-11.27,5.02-11.27,11.27,5.06,11.28,11.27,11.28,11.28-5.06,11.28-11.28ZM104.04,147.58c0-6.21-5.06-11.27-11.28-11.27s-11.27,5.06-11.27,11.27,5.06,11.28,11.27,11.28,11.28-5.06,11.28-11.28Z" style="fill:#edebe2;"></path><path d="M342.27,286.3c10,9.31,14.29,27.04,3.76,39.48-8.7,10.17-17.19,15.21-25.95,15.45-.19,0-.41,0-.6.02-7.61,0-15.04-3.74-22.08-11.17-.13-.13-.26-.28-.36-.42-3.98-5.17-5.64-10.62-4.9-16.15,1.45-10.98,11.92-19.77,22.56-27.83,7.95-7.6,18.99-7.34,27.57.62ZM337.76,318.72c6.72-7.96,2.64-19.3-2.9-24.45-3.14-2.91-7.91-5.38-12.8-.57-.17.17-.34.32-.53.47-9.15,6.89-17.73,14.19-18.6,20.76-.23,1.62-.19,4.19,2.57,7.83,5.03,5.21,9.83,7.64,14.32,7.58,5.43-.15,11.47-4.05,17.94-11.62Z"></path><path d="M343.69,422.65c.15,1.13.43,2.19.73,3.26-9.36,3.19-19.15,4-29.87,2.14-3.09-.53-5.49-3.31-5.73-6.59-.06-.98-.12-1.92-.19-2.87,3.79.21,7.47.36,11,.36,8.3,0,15.98-.64,23.4-1.87.22,1.91.43,3.78.66,5.57Z"></path><path d="M340.93,393.19c.34,4.79.68,8.99,1.02,12.97-10.3,1.77-21.21,2.26-33.83,1.47-.06-3.38-.06-7,.04-11.02,11.58-.17,22.39-1.28,32.77-3.42Z" style="fill:#edebe2;"></path><path d="M305.82,118.54c16.19-9.48,30.64-12.53,43.98-9.48-5.64,7.19-18.53,15.31-40.93,20.27-.96-3.89-2.09-7.81-3.05-10.79Z" style="fill:#edebe2;"></path><path d="M334.86,294.27c5.54,5.15,9.62,16.49,2.9,24.45-6.47,7.57-12.51,11.47-17.94,11.62-4.49.06-9.29-2.37-14.32-7.58-2.76-3.64-2.8-6.21-2.57-7.83.87-6.57,9.45-13.87,18.6-20.76.19-.15.36-.3.53-.47,4.89-4.81,9.66-2.34,12.8.57Z"></path><path d="M275.1,13.59c10.28,17.22,12.6,38.38,7.13,62.94-12.47-7.53-25.08-13.7-37.7-18.53,7.72-11.51,15.32-26.02,23.15-44.17.87-2.02,2.66-2.34,3.38-2.38.64,0,2.77,0,4.04,2.14Z" style="fill:#9e9e9e;"></path><path d="M253.28,136.31c6.21,0,11.28,5.06,11.28,11.27s-5.06,11.28-11.28,11.28-11.27-5.06-11.27-11.28,5.06-11.27,11.27-11.27Z"></path><path d="M245.28,231.56c8.87,9.59,12.83,20.59,12.08,33.61-.76,13.36-6,24-16.02,32.56-33.17,28.27-105.63,21.19-106.37,21.12-.09,0-.17-.02-.24-.02-93.14-5.47-103.37-38.02-102.97-62.02.3-16.34,5.3-28.91,15.32-38.48,15.23-14.54,42.44-21.87,81.03-21.87,3.11,0,6.3.04,9.58.14.76.03,77.14,2.03,107.59,34.96ZM196,236.86c0-6.34-5.15-11.49-11.49-11.49s-11.49,5.15-11.49,11.49,5.15,11.48,11.49,11.48,11.49-5.14,11.49-11.48ZM100.73,235.6c0-6.36-5.15-11.49-11.49-11.49s-11.48,5.15-11.48,11.49,5.14,11.49,11.48,11.49,11.49-5.15,11.49-11.49Z" style="fill:#e99ddf;"></path><path d="M252.06,417.23c-1.38,2.4-2.76,4.8-4.36,7.34-1.94,3.06-5.38,4.95-9.06,4.8l-21.24-.68c-4.95-.15-9.08-3.72-9.82-8.49-.24-1.51-.45-3.1-.66-4.68,10.25,1.37,20.82,2.09,31.65,2.09,4.45,0,8.96-.15,13.49-.38Z"></path><path d="M184.51,225.37c6.34,0,11.49,5.15,11.49,11.49s-5.15,11.48-11.49,11.48-11.49-5.14-11.49-11.48,5.15-11.49,11.49-11.49Z"></path><path d="M147.11,414.12c-.87,2.3-1.79,4.47-2.74,6.51-1.6,3.45-5.19,5.64-9.19,5.64h-16.88c-4.59,0-8.68-3.09-9.95-7.53-.56-1.9-1.02-3.83-1.51-5.77,8.23,1.47,16.4,2.21,24.49,2.21,5.31,0,10.57-.42,15.78-1.06Z"></path><path d="M113.62,60.95c-2.21,1.19-4.42,2.34-6.57,3.66-7.66,4.68-14.64,10.17-21.02,16.24-12.57-29.6-11.04-50.34,4.66-64.96,1.51-1.4,3.23-1.08,3.89-.87,1.49.47,2.58,1.64,2.92,3.17,3.98,18.04,9.04,31.49,16.12,42.76Z" style="fill:#9e9e9e;"></path><path d="M92.76,136.31c6.22,0,11.28,5.06,11.28,11.27s-5.06,11.28-11.28,11.28-11.27-5.06-11.27-11.28,5.06-11.27,11.27-11.27Z"></path><path d="M89.24,224.11c6.34,0,11.49,5.13,11.49,11.49s-5.15,11.49-11.49,11.49-11.48-5.15-11.48-11.49,5.14-11.49,11.48-11.49Z"></path><path d="M75.18,92.59c-8.79,10.81-15.85,23.13-21.05,36.59-28.5-9.61-40.76-23.34-42.5-32.48-.75-3.96.42-7.22,3.51-9.66,7.49-5.98,27.61-7.88,60.04,5.55Z" style="fill:#edebe2;"></path><line x1="432.69" y1="321.36" x2="432.68" y2="321.36" style="fill:none; stroke:#000; stroke-miterlimit:10;"></line><path d="M432.69,321.36c1.23-33.72-5.13-62.63-19.26-85.63-19.66-32.02-53.16-51.4-99.61-57.72-.34-12.79-1.53-25.62-3.06-37.96,28.21-6.19,47.66-18.34,52.42-32.95,2.45-7.51.77-14.86-4.72-20.71-11.19-11.89-35.26-14.99-65.36-8.68,5.77-26.87,2.92-50.33-8.68-69.74-2.96-4.96-8.38-7.78-14.11-7.44-5.59.36-10.44,3.78-12.68,8.93-8.1,18.81-15.91,33.45-23.76,44.72-39.12-12.64-77.57-12.15-110.38,1.94-6.76-10.38-11.57-23-15.4-40.34-1.19-5.38-5.04-9.57-10.32-11.23-5.15-1.6-10.61-.39-14.55,3.29-18.34,17.09-21.32,40.92-9.11,72.53-29.1-11.06-53.31-11.89-65.8-1.94-6.21,4.96-8.91,12.32-7.4,20.21,3.04,15.94,21.91,31.32,49.65,40.75-6.17,20.34-8.38,42.91-6.13,66.78-1.7,1.34-3.36,2.7-4.91,4.17-12.06,11.51-18.36,27.04-18.7,46.17-.58,34.29,21.23,56.31,66.18,66.76-1.08,37.06,2.43,69.3,10.81,98.4,2.62,9.06,11,15.4,20.43,15.4h16.87c8.21,0,15.7-4.68,19.06-11.92,3.96-8.46,7.19-18.48,10.08-31.25,10.15,1.47,19.98,1.68,29.81.64.53,10.23,1.43,19.19,2.7,27.25,1.58,9.92,10.09,17.36,20.26,17.68l21.23.68c7.34.26,14.6-3.55,18.62-9.87,8.25-12.98,13.95-24.76,17.31-35.89,8.07,1.02,15.71,1.64,23.07,1.92-.26,10.08.06,17.53.66,25.8.59,8.34,6.66,15.15,14.74,16.56,4.6.78,9.04,1.19,13.38,1.19,8.43,0,16.47-1.56,24.3-4.56,3.81,3.49,8.85,5.64,14.36,5.64h.3l25.02-.34c8.72-.13,16.57-5.64,19.55-13.74,8.08-22,14-42.87,17.87-62.55,10.83,9.64,27.7,13.32,40.63,15.28.28.04.56.06.81.06,1.45,0,2.83-.57,3.87-1.62,1.24-1.23,1.79-2.98,1.51-4.68-2.7-17.08-16.36-34.12-41.56-51.99Z" style="fill:none; stroke:#000; stroke-miterlimit:10;"></path><path d="M404.16,241.43c9.68,15.76,15.4,34.68,17.23,56.29-.04.03-.09.03-.13.03-24.36,11.89-45.78-3.77-55.38-23.39-9.59-19.61-8.81-46.14,15.56-58.06.14-.06.23-.19.36-.27,8.89,7.19,16.36,15.66,22.36,25.4Z" style="fill:none; stroke:#000; stroke-miterlimit:10;"></path><path d="M308.87,129.33c-.96-3.89-2.09-7.81-3.05-10.79,16.19-9.48,30.64-12.53,43.98-9.48-5.64,7.19-18.53,15.31-40.93,20.27Z" style="fill:none; stroke:#000; stroke-miterlimit:10;"></path><path d="M267.68,13.83c.87-2.02,2.66-2.34,3.38-2.38.64,0,2.77,0,4.04,2.14,10.28,17.22,12.6,38.38,7.13,62.94-12.47-7.53-25.08-13.7-37.7-18.53,7.72-11.51,15.32-26.02,23.15-44.17Z" style="fill:none; stroke:#000; stroke-miterlimit:10;"></path><path d="M90.69,15.89c1.51-1.4,3.23-1.08,3.89-.87,1.49.47,2.58,1.64,2.92,3.17,3.98,18.04,9.04,31.49,16.12,42.76-2.21,1.19-4.42,2.34-6.57,3.66-7.66,4.68-14.64,10.17-21.02,16.24-12.57-29.6-11.04-50.34,4.66-64.96Z" style="fill:none; stroke:#000; stroke-miterlimit:10;"></path><path d="M11.63,96.7c-.75-3.96.42-7.22,3.51-9.66,7.49-5.98,27.61-7.88,60.04,5.55-8.79,10.81-15.85,23.13-21.05,36.59-28.5-9.61-40.76-23.34-42.5-32.48Z" style="fill:none; stroke:#000; stroke-miterlimit:10;"></path><path d="M112.71,73.89c46.74-28.6,110.36-22.7,170.14,15.76.21.15.46.17.7.28.27.13.49.32.78.4.13.05.26.03.41.07l.45.06c.19.02.4.09.59.09.34,0,.64-.11.96-.15.13-.02.28.02.4-.02,35.62-9.26,56.38-3.88,63.38,3.55,1.41,1.49,2.26,3.08,2.62,4.81-17.53-4.36-36.15-.22-56.76,12.85-2.15,1.36-3.07,4.02-2.22,6.42.94,2.64,3.88,11.68,5.15,18.64,9.7,73.08-.44,117.29-32.78,140.61.91-3.64,1.49-7.45,1.7-11.41.89-15.91-4.15-29.91-14.98-41.63-33.61-36.32-112.03-38.38-115.31-38.45-36.34-1.06-63.72,3.49-83.06,13.81-3.42-54.59,17.85-101.25,57.83-125.69Z" style="fill:none; stroke:#000; stroke-miterlimit:10;"></path><path d="M31.76,256.81c.3-16.34,5.3-28.91,15.32-38.48,15.23-14.54,42.44-21.87,81.03-21.87,3.11,0,6.3.04,9.58.14.76.03,77.14,2.03,107.59,34.96,8.87,9.59,12.83,20.59,12.08,33.61-.76,13.36-6,24-16.02,32.56-33.17,28.27-105.63,21.19-106.37,21.12-.09,0-.17-.02-.24-.02-93.14-5.47-103.37-38.02-102.97-62.02Z" style="fill:none; stroke:#000; stroke-miterlimit:10;"></path><path d="M135.18,426.27h-16.88c-4.59,0-8.68-3.09-9.95-7.53-.56-1.9-1.02-3.83-1.51-5.77,8.23,1.47,16.4,2.21,24.49,2.21,5.31,0,10.57-.42,15.78-1.06-.87,2.3-1.79,4.47-2.74,6.51-1.6,3.45-5.19,5.64-9.19,5.64Z" style="fill:none; stroke:#000; stroke-miterlimit:10;"></path><path d="M238.64,429.37l-21.24-.68c-4.95-.15-9.08-3.72-9.82-8.49-.24-1.51-.45-3.1-.66-4.68,10.25,1.37,20.82,2.09,31.65,2.09,4.45,0,8.96-.15,13.49-.38-1.38,2.4-2.76,4.8-4.36,7.34-1.94,3.06-5.38,4.95-9.06,4.8Z" style="fill:none; stroke:#000; stroke-miterlimit:10;"></path><path d="M271.02,383.08c-2.75-.36-5.39,1.36-6.04,4.08-1.49,6.02-3.86,12.32-6.98,18.94-.22-.02-.41-.11-.64-.09-17.92,1.32-35.23.68-51.64-1.7-.42-5-.74-10.3-.97-16.04-.07-1.55-.79-3.02-1.98-4s-2.77-1.42-4.3-1.17c-12.26,1.94-24.49,1.72-37.36-.66-2.89-.53-5.7,1.34-6.32,4.23-1.23,5.96-2.55,11.28-3.94,16.11-.12.02-.25-.04-.4-.02-15,2.45-30.59,1.87-46.38-1.51-4.83-22.87-6.85-47.83-6.15-75.68,10.9,1.94,22.85,3.34,36.09,4.13,1.46.15,10.04.95,22.21.95,25.72,0,67.52-3.59,92.2-24.63,4.09-3.47,7.47-7.32,10.3-11.47,42.59-20.74,54.57-62.25,55.19-105.55,22.96,3.3,42.42,9.98,58.23,20.05-25.43,15.55-27.64,46.35-16.02,70.1,9.21,18.87,27.29,33.61,48.34,33.61,5.65,0,11.55-1.15,17.53-3.49.59,28.81-5.15,61.96-17.3,98.7-18.45,1.51-35.4,1.38-51.66-.39-.57-6.12-1.1-13.14-1.63-21.5-.11-1.62-.92-3.11-2.24-4.05-1.3-.95-2.96-1.27-4.53-.89-21.57,5.4-44.93,6.02-73.61,1.94Z" style="fill:none; stroke:#000; stroke-miterlimit:10;"></path><path d="M340.93,393.19c.34,4.79.68,8.99,1.02,12.97-10.3,1.77-21.21,2.26-33.83,1.47-.06-3.38-.06-7,.04-11.02,11.58-.17,22.39-1.28,32.77-3.42Z" style="fill:none; stroke:#000; stroke-miterlimit:10;"></path><line x1="340.93" y1="393.18" x2="340.93" y2="393.19" style="fill:none; stroke:#000; stroke-miterlimit:10;"></line><path d="M314.55,428.05c-3.09-.53-5.49-3.31-5.73-6.59-.06-.98-.12-1.92-.19-2.87,3.79.21,7.47.36,11,.36,8.3,0,15.98-.64,23.4-1.87.22,1.91.43,3.78.66,5.57.15,1.13.43,2.19.73,3.26-9.36,3.19-19.15,4-29.87,2.14Z" style="fill:none; stroke:#000; stroke-miterlimit:10;"></path><path d="M389.88,429.8l-25.02.34c-5.3-.04-9.7-3.77-10.36-8.91-.11-.86-.21-1.73-.32-2.62,8.36.83,16.87,1.34,25.7,1.34,6.77,0,13.77-.32,20.92-.81-.49,1.36-.92,2.68-1.41,4.04-1.45,3.9-5.27,6.56-9.51,6.62Z" style="fill:none; stroke:#000; stroke-miterlimit:10;"></path><path d="M429.92,350.29c.81-5.47,1.47-10.81,1.94-16.06,15.21,11.55,25.08,22.66,29.44,33.19-17.08-3.53-27.14-9.06-31.38-17.13Z" style="fill:none; stroke:#000; stroke-miterlimit:10;"></path><path d="M320.08,341.23c8.76-.24,17.25-5.28,25.95-15.45,10.53-12.44,6.24-30.17-3.76-39.48-8.58-7.96-19.62-8.22-27.57-.62-10.64,8.06-21.11,16.85-22.56,27.83-.74,5.53.92,10.98,4.9,16.15.1.14.23.29.36.42,7.04,7.43,14.47,11.17,22.08,11.17.19-.02.41-.02.6-.02Z" style="fill:none; stroke:#000; stroke-miterlimit:10;"></path><path d="M302.93,314.93c.87-6.57,9.45-13.87,18.6-20.76.19-.15.36-.3.53-.47,4.89-4.81,9.66-2.34,12.8.57,5.54,5.15,9.62,16.49,2.9,24.45-6.47,7.57-12.51,11.47-17.94,11.62-4.49.06-9.29-2.37-14.32-7.58-2.76-3.64-2.8-6.21-2.57-7.83Z" style="fill:none; stroke:#000; stroke-miterlimit:10;"></path><path d="M92.76,158.86c-6.21,0-11.27-5.06-11.27-11.28s5.06-11.27,11.27-11.27,11.28,5.06,11.28,11.27-5.06,11.28-11.28,11.28Z" style="fill:none; stroke:#000; stroke-miterlimit:10;"></path><path d="M253.28,136.31c6.21,0,11.28,5.06,11.28,11.27s-5.06,11.28-11.28,11.28-11.27-5.06-11.27-11.28,5.06-11.27,11.27-11.27Z" style="fill:none; stroke:#000; stroke-miterlimit:10;"></path><path d="M173.02,236.86c0-6.34,5.15-11.49,11.49-11.49s11.49,5.15,11.49,11.49-5.15,11.48-11.49,11.48-11.49-5.14-11.49-11.48Z" style="fill:none; stroke:#000; stroke-miterlimit:10;"></path><path d="M100.73,235.6c0,6.34-5.15,11.49-11.49,11.49s-11.48-5.15-11.48-11.49,5.14-11.49,11.48-11.49,11.49,5.13,11.49,11.49Z" style="fill:none; stroke:#000; stroke-miterlimit:10;"></path></svg>